<?xml version="1.0"?>
<svg xmlns="http://www.w3.org/2000/svg" id="Layer_1" enable-background="new 0 0 512 512" height="512px" viewBox="0 0 512 512" width="512px" class=""><g><path d="m447.264 0h-382.528c-35.696 0-64.736 29.04-64.736 64.736v382.527c0 35.697 29.04 64.737 64.736 64.737h382.527c35.697 0 64.737-29.04 64.737-64.736v-382.528c0-35.696-29.04-64.736-64.736-64.736zm34.487 447.264c0 19.017-15.471 34.488-34.488 34.488h-382.527c-19.017 0-34.488-15.471-34.488-34.488v-382.528c0-19.017 15.471-34.488 34.488-34.488h382.527c19.017 0 34.488 15.471 34.488 34.488z" data-original="#000000" class="active-path" data-old_color="#000000" fill="#194C80"/><path d="m427.465 120.732h-197.264c-6.558-22.442-27.309-38.889-51.842-38.889s-45.283 16.446-51.842 38.889h-31.77c-8.353 0-15.124 6.771-15.124 15.124s6.771 15.124 15.124 15.124h31.77c6.558 22.442 27.309 38.888 51.842 38.888s45.283-16.446 51.842-38.888h197.265c8.353 0 15.124-6.771 15.124-15.124s-6.772-15.124-15.125-15.124zm-225.342 15.124c0 13.103-10.66 23.764-23.764 23.764s-23.764-10.66-23.764-23.764 10.66-23.764 23.764-23.764 23.764 10.66 23.764 23.764z" data-original="#000000" class="active-path" data-old_color="#000000" fill="#194C80"/><path d="m427.465 240.876h-114.518c-6.558-22.442-27.309-38.888-51.842-38.888s-45.283 16.446-51.842 38.888h-114.516c-8.353 0-15.124 6.771-15.124 15.124s6.771 15.124 15.124 15.124h114.517c6.558 22.442 27.309 38.888 51.842 38.888s45.283-16.446 51.842-38.888h114.518c8.353 0 15.124-6.771 15.124-15.124s-6.772-15.124-15.125-15.124zm-142.596 15.124c0 13.103-10.66 23.764-23.764 23.764s-23.764-10.66-23.764-23.764c0-13.103 10.66-23.764 23.764-23.764s23.764 10.661 23.764 23.764z" data-original="#000000" class="active-path" data-old_color="#000000" fill="#194C80"/><path d="m427.465 361.02h-31.771c-6.558-22.442-27.309-38.888-51.842-38.888s-45.283 16.446-51.842 38.888h-197.263c-8.353 0-15.124 6.771-15.124 15.124s6.771 15.124 15.124 15.124h197.263c6.558 22.442 27.309 38.889 51.842 38.889s45.283-16.446 51.842-38.889h31.771c8.353 0 15.124-6.771 15.124-15.124s-6.771-15.124-15.124-15.124zm-59.849 15.124c0 13.104-10.66 23.764-23.764 23.764s-23.764-10.66-23.764-23.764c0-13.103 10.66-23.764 23.764-23.764s23.764 10.661 23.764 23.764z" data-original="#000000" class="active-path" data-old_color="#000000" fill="#194C80"/></g> </svg>
